# xmcd
#
# Track frame offsets:
#	150
#	21405
#	40402
#	60545
#	76825
#	91898
#	108808
#	128932
#	145633
#	164502
#
# Disc length: 2461 seconds
#
# Revision: 0
# Processed by: cddbd v1.5.2PL0 Copyright (c) Steve Scherf et al.
# Submitted via: EZCDAudioConverter 8.3.2.1
#
DISCID=7b099b0a
DTITLE=Πάριος Γιάννης - Επαφή-1992, Σταμ. Σπανουδάκης
DYEAR=2012
DGENRE=Έντεχνη λαϊκή
TTITLE0=Τίποτα δεν περιμένω
TTITLE1=Καλημέρα τι κάνεις
TTITLE2=Ξαφνικά
TTITLE3=Είμαι θύμα
TTITLE4=Μέρες
TTITLE5=Πέρασαν
TTITLE6=Κανείς δεν θα μάθει
TTITLE7=Μια ζωή σου χάρισα
TTITLE8=Επαφή
TTITLE9=Σήμερα
EXTD=
EXTT0=
EXTT1=
EXTT2=
EXTT3=
EXTT4=
EXTT5=
EXTT6=
EXTT7=
EXTT8=
EXTT9=
PLAYORDER=
